<svg xmlns="http://www.w3.org/2000/svg" xmlns:xlink="http://www.w3.org/1999/xlink" version="1.1" id="Warstwa_1" x="0px" y="0px" style="enable-background:new 0 0 400 130;" xml:space="preserve" viewBox="56.16 24.02 287.67 81.98">
<style type="text/css">
	.st0{fill:none;}
	.st1{fill-rule:evenodd;clip-rule:evenodd;fill:#A5CD39;}
	.st2{fill-rule:evenodd;clip-rule:evenodd;fill:#929395;}
	.st3{fill:#929395;}
</style>
<g>
	<rect class="st0" width="400" height="130"/>
</g>
<path class="st1" d="M99.3,79.7c-0.4,1.1-1.6,1.9-2.7,1.9h-7.8c-1.1,0-1.6-0.9-1.2-1.9l7.8-20.9H75.8L68,79.7  c-0.4,1.1-1.6,1.9-2.7,1.9h-7.8c-1.1,0-1.6-0.9-1.2-1.9l10-26.6c0.4-1,1.6-1.9,2.7-1.9h35.2c3.2,0,4.9,2.6,3.7,5.7L99.3,79.7   M151,51.1c3.2,0,4.9,2.5,3.7,5.7l-4.3,11.4c-0.4,1-1.6,1.9-2.7,1.9h-23.4c-1.1,0-1.6-0.9-1.2-1.9l1.4-3.8c0.4-1.1,1.6-1.9,2.7-1.9  h13.7l1.4-3.8h-19.5L117,74h29.3c1.1,0,1.6,0.9,1.2,1.9l-1.4,3.8c-0.4,1.1-1.6,1.9-2.7,1.9h-35.2c-3.2,0-4.9-2.6-3.7-5.7l7.1-19  c1.2-3.1,4.7-5.7,8-5.7H151z M173.7,74l-8,5.7c-1.3,1-2.7,1.9-4.6,1.9h-10.7c-1,0-1.6-1-0.3-1.9l18.7-13.3L160,53  c-0.6-1,0.7-1.9,1.7-1.9h10.7c2,0,2.6,1,3.2,1.9l3.7,5.7l26.7-19c1.3-1,2,0,1.6,1l-3.9,10.5c-0.7,1.9-2,2.9-3.4,3.8l-16,11.4  l8.7,13.3c0.6,1-0.7,1.9-1.7,1.9h-10.7c-2,0-2.6-1-3.2-1.9L173.7,74z"/>
<path class="st2" d="M286.9,79.7c-0.4,1-1.6,1.9-2.7,1.9h-3.9c-3.2,0-4.9-2.6-3.7-5.7l6.4-17.1h-19.5L257.7,74h14.7  c1.1,0,1.6,0.9,1.2,1.9l-1.4,3.8c-0.4,1-1.6,1.9-2.7,1.9H249c-3.2,0-4.9-2.6-3.7-5.7l7.1-19c1.2-3.1,4.7-5.7,8-5.7h31.3  c3.2,0,4.9,2.5,3.7,5.7L286.9,79.7 M213.3,35.9c0.7-1.9,2-2.9,3.4-3.8l10.7-7.6c1.5-1.1,2-0.1,1.6,1l-9.6,25.7h25.4  c3.2,0,4.9,2.5,3.7,5.7l-7.1,19c-1.2,3.2-4.8,5.7-8,5.7h-31.3c-3.2,0-4.9-2.6-3.7-5.7l4.3-11.4c0.4-1.1,1.6-1.9,2.7-1.9h7.8  c1.1,0,1.6,0.9,1.2,1.9l-3.6,9.5h19.5l5.7-15.2h-25.4c-3.2,0-4.9-2.6-3.7-5.7L213.3,35.9z M334.7,51.1h7.8c1.1,0,1.6,0.9,1.2,1.9  l-10,26.6c-0.4,1-1.6,1.9-2.7,1.9h-35.2c-3.2,0-4.9-2.6-3.7-5.7l7.1-19c1.2-3.1,4.8-5.7,8-5.7h3.9c1.1,0,1.6,0.9,1.2,1.9L304.6,74  h19.5L332,53C332.4,52,333.6,51.1,334.7,51.1"/>
<path class="st3" d="M63.6,90.9h-5v4.6h4.6c0.2,0,0.4,0.2,0.4,0.4v0.8c0,0.2-0.2,0.4-0.4,0.4h-4.6v6c0,0.2-0.2,0.4-0.4,0.4h-0.9  c-0.2,0-0.4-0.2-0.4-0.4V89.7c0-0.2,0.2-0.4,0.4-0.4h6.3c0.2,0,0.4,0.2,0.4,0.4v0.8C64,90.8,63.8,90.9,63.6,90.9"/>
<path class="st3" d="M75.4,103.4h-1.1c-0.2,0-0.4-0.2-0.4-0.4l-0.7-2.4h-5.3l-0.7,2.4c-0.1,0.2-0.2,0.4-0.4,0.4h-1.1  c-0.2,0-0.3-0.2-0.3-0.4l4.2-13.3c0.1-0.2,0.2-0.4,0.4-0.4h1c0.2,0,0.4,0.2,0.4,0.4l4.2,13.3C75.7,103.2,75.6,103.4,75.4,103.4   M70.5,92l-2.2,7h4.3L70.5,92z"/>
<path class="st3" d="M81.7,103.4h-4c-0.2,0-0.4-0.2-0.4-0.4V89.7c0-0.2,0.2-0.4,0.4-0.4h3.6c2.9,0,4.4,1.2,4.4,3.9  c0,1.5-0.7,2.4-1.7,3c1.3,0.5,2.1,1.5,2.1,3.2C86.1,102.2,84.5,103.4,81.7,103.4 M81.3,90.9H79v4.6h2.3c1.8,0,2.7-0.8,2.7-2.3  C84,91.7,83.1,90.9,81.3,90.9 M81.7,97.1H79v4.8h2.7c1.8,0,2.7-0.7,2.7-2.4C84.4,97.8,83.5,97.1,81.7,97.1"/>
<path class="st3" d="M97.1,103.4h-1.2c-0.2,0-0.4-0.2-0.5-0.4L92,97.4h-1.7v5.6c0,0.2-0.2,0.4-0.4,0.4H89c-0.2,0-0.4-0.2-0.4-0.4  V89.7c0-0.2,0.2-0.4,0.4-0.4h3.6c2.8,0,4.4,1.4,4.4,4.1c0,2.2-1,3.5-3,3.9l3.4,5.7C97.4,103.2,97.3,103.4,97.1,103.4 M92.6,90.9  h-2.3v4.9h2.3c1.8,0,2.7-1,2.7-2.5C95.3,91.9,94.3,90.9,92.6,90.9"/>
<path class="st3" d="M104.2,98.5v4.5c0,0.2-0.2,0.4-0.4,0.4h-0.9c-0.2,0-0.4-0.2-0.4-0.4v-4.5l-4-8.8c-0.1-0.2,0-0.4,0.3-0.4h1.1  c0.2,0,0.4,0.2,0.5,0.4l3,6.8l2.9-6.8c0.1-0.2,0.3-0.4,0.5-0.4h1.1c0.2,0,0.4,0.2,0.3,0.4L104.2,98.5z"/>
<path class="st3" d="M111.2,103.4h-0.9c-0.2,0-0.4-0.2-0.4-0.4V89.7c0-0.2,0.2-0.4,0.4-0.4h0.9c0.2,0,0.4,0.2,0.4,0.4V103  C111.6,103.2,111.4,103.4,111.2,103.4 M118.1,103.4h-1.2c-0.2,0-0.4-0.2-0.5-0.4l-4.6-7l4.4-6.4c0.1-0.2,0.3-0.4,0.5-0.4h1.2  c0.2,0,0.3,0.2,0.2,0.4l-4.4,6.3l4.6,6.9C118.5,103.2,118.4,103.4,118.1,103.4"/>
<path class="st3" d="M129.2,103.4h-1.1c-0.2,0-0.4-0.2-0.4-0.4l-0.7-2.4h-5.3l-0.7,2.4c-0.1,0.2-0.2,0.4-0.4,0.4h-1.1  c-0.2,0-0.3-0.2-0.3-0.4l4.2-13.3c0.1-0.2,0.2-0.4,0.4-0.4h1c0.2,0,0.4,0.2,0.4,0.4l4.2,13.3C129.5,103.2,129.4,103.4,129.2,103.4   M124.3,92l-2.2,7h4.3L124.3,92z"/>
<path class="st3" d="M140.3,103.6c-1.5,0-3-0.4-3-0.4c-0.3-0.1-0.4-0.2-0.4-0.4v-0.9c0-0.2,0.1-0.3,0.4-0.3c0,0,1.7,0.4,2.9,0.4  c1.5,0,2.6-0.6,2.6-2.2v-0.6c0-1.3-0.7-1.7-1.9-2.2l-1.3-0.5c-1.3-0.5-2.6-1.2-2.6-3.3v-0.5c0-2.4,1.7-3.6,4-3.6  c1.5,0,2.8,0.3,2.8,0.3c0.3,0.1,0.4,0.2,0.4,0.4v0.9c0,0.2-0.1,0.3-0.4,0.3c0,0-1.5-0.3-2.8-0.3c-1.5,0-2.4,0.7-2.4,2v0.5  c0,1,0.7,1.4,1.6,1.8l1.3,0.5c1.4,0.5,2.9,1.3,2.9,3.7v0.6C144.4,102.6,142.7,103.6,140.3,103.6"/>
<path class="st3" d="M151.3,103.6c-3,0-4.4-1.9-4.4-4.6v-5.3c0-2.6,1.3-4.6,4.4-4.6c3,0,4.4,1.9,4.4,4.6V99  C155.6,101.7,154.3,103.6,151.3,103.6 M154,93.7c0-1.5-0.7-3-2.7-3c-2,0-2.7,1.4-2.7,3V99c0,1.5,0.7,3,2.7,3c2,0,2.7-1.4,2.7-3V93.7  z"/>
<path class="st3" d="M165.1,103.4h-6.3c-0.2,0-0.4-0.2-0.4-0.4V89.7c0-0.2,0.2-0.4,0.4-0.4h0.9c0.2,0,0.4,0.2,0.4,0.4v12.1h5  c0.2,0,0.4,0.2,0.4,0.4v0.8C165.4,103.2,165.3,103.4,165.1,103.4"/>
<path class="st3" d="M174.1,103.4h-6.9c-0.2,0-0.4-0.2-0.4-0.4v-0.6c0-0.2,0.2-0.4,0.4-0.4h2.6V90.7h-2.6c-0.2,0-0.4-0.2-0.4-0.4  v-0.6c0-0.2,0.2-0.4,0.4-0.4h6.9c0.2,0,0.4,0.2,0.4,0.4v0.6c0,0.2-0.2,0.4-0.4,0.4h-2.6V102h2.6c0.2,0,0.4,0.2,0.4,0.4v0.6  C174.4,103.2,174.3,103.4,174.1,103.4"/>
<path class="st3" d="M180.8,103.4h-4c-0.2,0-0.4-0.2-0.4-0.4V89.7c0-0.2,0.2-0.4,0.4-0.4h4c3,0,4.4,1.9,4.4,4.6v4.9  C185.1,101.5,183.8,103.4,180.8,103.4 M183.5,93.9c0-1.5-0.7-3-2.7-3h-2.7v10.9h2.7c2,0,2.7-1.4,2.7-3V93.9z"/>
<path class="st3" d="M196.2,103.4h-1c-0.2,0-0.4-0.2-0.5-0.4l-5.1-10v10c0,0.2-0.2,0.4-0.4,0.4h-0.9c-0.2,0-0.4-0.2-0.4-0.4V89.7  c0-0.2,0.2-0.4,0.4-0.4h1c0.3,0,0.4,0.1,0.5,0.3l5.2,10v-10c0-0.2,0.2-0.4,0.4-0.4h0.9c0.2,0,0.4,0.2,0.4,0.4V103  C196.6,103.2,196.5,103.4,196.2,103.4"/>
<path class="st3" d="M204,98.5v4.5c0,0.2-0.2,0.4-0.4,0.4h-0.9c-0.2,0-0.4-0.2-0.4-0.4v-4.5l-4-8.8c-0.1-0.2,0-0.4,0.3-0.4h1.1  c0.2,0,0.4,0.2,0.5,0.4l3,6.8l2.9-6.8c0.1-0.2,0.3-0.4,0.5-0.4h1.1c0.2,0,0.4,0.2,0.3,0.4L204,98.5z"/>
<path class="st3" d="M216.1,103.4c0,0-1.1,0.2-2.1,0.2c-2.9,0-4.2-1.9-4.2-4.6v-5.3c0-2.6,1.3-4.6,4.2-4.6c1.1,0,2.1,0.2,2.1,0.2  c0.2,0.1,0.4,0.2,0.4,0.4v0.9c0,0.2-0.2,0.3-0.4,0.3c0,0-1.1-0.2-2-0.2c-1.9,0-2.6,1.4-2.6,3V99c0,1.5,0.7,3,2.6,3  c0.8,0,2-0.2,2-0.2c0.2,0,0.4,0.1,0.4,0.3v0.9C216.4,103.2,216.3,103.3,216.1,103.4"/>
<path class="st3" d="M226.9,103.4H226c-0.2,0-0.4-0.2-0.4-0.4v-6h-5.3v6c0,0.2-0.2,0.4-0.4,0.4H219c-0.2,0-0.4-0.2-0.4-0.4V89.7  c0-0.2,0.2-0.4,0.4-0.4h0.9c0.2,0,0.4,0.2,0.4,0.4v5.8h5.3v-5.8c0-0.2,0.2-0.4,0.4-0.4h0.9c0.2,0,0.4,0.2,0.4,0.4V103  C227.3,103.2,227.1,103.4,226.9,103.4"/>
<path class="st3" d="M244.4,103.4h-1.2c-0.2,0-0.4-0.2-0.5-0.4l-3.3-5.6h-1.7v5.6c0,0.2-0.2,0.4-0.4,0.4h-0.9  c-0.2,0-0.4-0.2-0.4-0.4V89.7c0-0.2,0.2-0.4,0.4-0.4h3.6c2.8,0,4.4,1.4,4.4,4.1c0,2.2-1,3.5-3,3.9l3.4,5.7  C244.8,103.2,244.7,103.4,244.4,103.4 M240,90.9h-2.3v4.9h2.3c1.8,0,2.7-1,2.7-2.5C242.6,91.9,241.7,90.9,240,90.9"/>
<path class="st3" d="M251.3,103.6c-3,0-4.4-1.9-4.4-4.6v-5.3c0-2.6,1.3-4.6,4.4-4.6c3,0,4.4,1.9,4.4,4.6V99  C255.6,101.7,254.3,103.6,251.3,103.6 M253.9,93.7c0-1.5-0.7-3-2.7-3c-2,0-2.7,1.4-2.7,3V99c0,1.5,0.7,3,2.7,3c2,0,2.7-1.4,2.7-3  V93.7z"/>
<path class="st3" d="M264.4,103.4h-6.3c-0.2,0-0.4-0.2-0.4-0.4v-1.2l5-10.9h-4.6c-0.2,0-0.4-0.2-0.4-0.4v-0.8c0-0.2,0.2-0.4,0.4-0.4  h6.3c0.2,0,0.4,0.2,0.4,0.4v1.2l-5,10.9h4.6c0.2,0,0.4,0.2,0.4,0.4v0.8C264.8,103.2,264.7,103.4,264.4,103.4"/>
<path class="st3" d="M279.6,103c-0.1,0.2-0.2,0.4-0.4,0.4H278c-0.2,0-0.4-0.2-0.4-0.4l-2.9-10.9l-2.9,10.9c-0.1,0.2-0.2,0.4-0.4,0.4  H270c-0.2,0-0.4-0.2-0.4-0.4l-3.3-13.3c-0.1-0.2,0.1-0.4,0.3-0.4h1.1c0.2,0,0.3,0.1,0.4,0.3l2.7,11l2.8-10.9  c0.1-0.2,0.2-0.4,0.4-0.4h1.3c0.2,0,0.4,0.2,0.4,0.4l2.8,10.9l2.7-11c0.1-0.2,0.2-0.3,0.4-0.3h1.1c0.2,0,0.4,0.2,0.3,0.4L279.6,103z  "/>
<path class="st3" d="M291.5,103.4h-6.9c-0.2,0-0.4-0.2-0.4-0.4v-0.6c0-0.2,0.2-0.4,0.4-0.4h2.6V90.7h-2.6c-0.2,0-0.4-0.2-0.4-0.4  v-0.6c0-0.2,0.2-0.4,0.4-0.4h6.9c0.2,0,0.4,0.2,0.4,0.4v0.6c0,0.2-0.2,0.4-0.4,0.4h-2.6V102h2.6c0.2,0,0.4,0.2,0.4,0.4v0.6  C291.8,103.2,291.7,103.4,291.5,103.4"/>
<path class="st3" d="M301.3,103l-0.7-2.4h-5.3l-0.7,2.4c-0.1,0.2-0.2,0.4-0.4,0.4H293c-0.2,0-0.3-0.2-0.3-0.4l4.2-13.3  c0.1-0.2,0.2-0.4,0.4-0.4h1c0.2,0,0.4,0.2,0.4,0.4l4.2,13.3c0.1,0.2-0.1,0.4-0.3,0.4c0.2,0,0.3,0.2,0.2,0.4l-0.8,1.8  c-0.1,0.2-0.3,0.4-0.5,0.4h-1.1c-0.2,0-0.3-0.2-0.2-0.4l0.8-1.8c0.1-0.2,0.3-0.4,0.5-0.4C301.5,103.4,301.4,103.2,301.3,103   M297.9,92l-2.2,7h4.3L297.9,92z"/>
<path class="st3" d="M310.9,103.4h-6.3c-0.2,0-0.4-0.2-0.4-0.4v-1.2l5-10.9h-4.6c-0.2,0-0.4-0.2-0.4-0.4v-0.8c0-0.2,0.2-0.4,0.4-0.4  h6.3c0.2,0,0.4,0.2,0.4,0.4v1.2l-5,10.9h4.6c0.2,0,0.4,0.2,0.4,0.4v0.8C311.2,103.2,311.1,103.4,310.9,103.4"/>
<path class="st3" d="M322.4,103.4h-1.1c-0.2,0-0.4-0.2-0.4-0.4l-0.7-2.4h-5.3l-0.7,2.4c-0.1,0.2-0.2,0.4-0.4,0.4h-1.1  c-0.2,0-0.3-0.2-0.3-0.4l4.2-13.3c0.1-0.2,0.2-0.4,0.4-0.4h1.1c0.2,0,0.4,0.2,0.4,0.4l4.2,13.3C322.8,103.2,322.6,103.4,322.4,103.4   M317.5,92l-2.2,7h4.3L317.5,92z"/>
<path class="st3" d="M332.7,103.4h-1.1c-0.2,0-0.4-0.2-0.5-0.4l-5.1-10v10c0,0.2-0.2,0.4-0.4,0.4h-0.9c-0.2,0-0.4-0.2-0.4-0.4V89.7  c0-0.2,0.2-0.4,0.4-0.4h1c0.3,0,0.4,0.1,0.5,0.3l5.2,10v-10c0-0.2,0.2-0.4,0.4-0.4h0.9c0.2,0,0.4,0.2,0.4,0.4V103  C333.1,103.2,333,103.4,332.7,103.4 M330.7,88.2l-3.9,0.3c-0.2,0-0.4-0.1-0.4-0.3v-0.8c0-0.2,0.2-0.4,0.4-0.4l3.9-0.3  c0.2,0,0.4,0.1,0.4,0.3v0.8C331.1,88,330.9,88.2,330.7,88.2"/>
</svg>